<svg width="178" height="48" viewBox="0 0 178 48" fill="none" xmlns="http://www.w3.org/2000/svg">
  <ellipse cx="89" cy="24" rx="89" ry="24" fill="black"/>
  <path d="M16 37.714V11.5288H24.9417C28.9768 11.5288 32.2072 12.7174 34.6331 15.0945C37.0712 17.4717 38.2903 20.6351 38.2903 24.5848C38.2903 28.5467 37.0651 31.7284 34.6149 34.13C32.1768 36.5193 28.9524 37.714 24.9417 37.714H16ZM20.9554 33.2157H24.6674C27.325 33.2279 29.4217 32.4903 30.9577 31.0031C32.5059 29.5037 33.28 27.3764 33.28 24.6214C33.28 21.8663 32.5059 19.7635 30.9577 18.3128C29.4095 16.8499 27.3128 16.1185 24.6674 16.1185H20.9554V33.2157Z" fill="white"/>
  <path d="M36.5703 37.714L46.7189 11.5288H51.3817L61.4755 37.714H56.1177L50.1017 20.8362L49.0412 17.5448H48.9315L47.8892 20.818L41.8366 37.714H36.5703ZM41.2515 32.0271L42.6412 28.1505H54.8743L56.3372 32.0271H41.2515Z" fill="white"/>
  <path d="M64 37.714V11.5288H68.9371V33.106H80.2377V37.714H64Z" fill="white"/>
  <path d="M82.2852 37.714V11.5288H87.2772V37.714H82.2852Z" fill="white"/>
  <path d="M98.9989 32.3197L98.944 25.8831L110.866 11.5288H116.955L105.838 24.402L98.9989 32.3197ZM96 37.714V11.5288H100.937V37.714H96ZM111.726 37.714L103.223 25.1151L106.441 21.3848L117.632 37.714H111.726Z" fill="white"/>
  <path d="M121.145 37.714V11.5288H126.137V37.714H121.145Z" fill="white"/>
  <path d="M130.285 37.714V11.5288H136.521L144.493 31.3505H144.621L152.539 11.5288H158.719V37.714H153.929V23.7802L154.057 19.2271H153.929L146.486 37.714H142.537L135.076 19.2271H134.948L135.094 23.7802V37.714H130.285Z" fill="white"/>
</svg>
