<svg preserveAspectRatio="none" width="100%" height="100%" overflow="visible" style="display: block;" viewBox="0 0 54 54" fill="none" xmlns="http://www.w3.org/2000/svg">
<g id="clarity:arrow-line" clip-path="url(#clip0_0_5)">
<path id="Vector" d="M41.4892 23.415L26.9992 9L12.5092 23.415C12.3382 23.5452 12.1973 23.7106 12.0958 23.9C11.9943 24.0894 11.9347 24.2984 11.921 24.5129C11.9073 24.7273 11.9399 24.9422 12.0165 25.143C12.0931 25.3438 12.2119 25.5257 12.3649 25.6766C12.5179 25.8274 12.7016 25.9437 12.9034 26.0174C13.1053 26.0911 13.3206 26.1206 13.5349 26.1038C13.7491 26.0871 13.9572 26.0245 14.1452 25.9203C14.3331 25.8161 14.4965 25.6728 14.6242 25.5L25.4992 14.715V43.41C25.4992 43.8078 25.6572 44.1894 25.9385 44.4707C26.2199 44.752 26.6014 44.91 26.9992 44.91C27.397 44.91 27.7786 44.752 28.0599 44.4707C28.3412 44.1894 28.4992 43.8078 28.4992 43.41V14.715L39.3742 25.5C39.6567 25.7805 40.039 25.9372 40.437 25.9358C40.8351 25.9344 41.2162 25.775 41.4967 25.4925C41.7772 25.21 41.9339 24.8277 41.9325 24.4297C41.9311 24.0317 41.7717 23.6505 41.4892 23.37V23.415Z" fill="var(--fill-0, black)"/>
<g id="Vector_2">
</g>
</g>
<defs>
<clipPath id="clip0_0_5">
<rect width="54" height="54" fill="white"/>
</clipPath>
</defs>
</svg>
